<svg xmlns="http://www.w3.org/2000/svg" id="Layer_1" data-name="Layer 1" viewBox="0 0 500 500">
    <defs>
        <style>
            .cls-1 {
                fill: #000;
                fill-rule: evenodd;
                stroke-width: 0px;
            }
        </style>
    </defs>
    <path class="cls-1"
        d="m292.55,179.24c15.12-7.54,34.37-18.64,53.63-33.85,4.06,8.44,4.51,15.8,2.41,21.74-1.48,4.19-4.28,7.83-7.95,10.73-3.98,3.13-8.95,5.41-14.44,6.65-10.42,2.35-22.6.98-33.65-5.27m2.62,77.26l20.02,11.56c-40.88,22.91-51.99,65.45-65.19,106.88-13.2-41.43-24.31-83.97-65.19-106.88l20.02-11.56c3.97-1.5,6.53-5.39,6.33-9.63-1.83-38.8,8.64-55.96,22.78-66.74,5.07-3.86,10.6-5.8,16.06-5.8s10.99,1.94,16.06,5.8c14.13,10.77,24.61,27.93,22.78,66.74-.2,4.24,2.36,8.13,6.33,9.63h0ZM250,3.14c23.14.62,46.34,5.11,66.47,13.85,13.94,6.06,26.95,14.06,38.73,23.63,5.32,4.32,9.7,8.5,14.52,13.3,13.01.45,32.03-14.01,40.86-27.54-15.2,49.82-84.54,108.65-132.54,131.16-.02,0-.03-.02-.05-.03-8.62-6.58-18.31-9.87-28-9.87s-19.38,3.29-27.99,9.87c-.01,0-.03.02-.05.03-48.01-22.51-117.35-81.34-132.54-131.16,8.83,13.53,27.85,27.98,40.86,27.54,4.83-4.8,9.21-8.98,14.52-13.3,11.78-9.57,24.79-17.58,38.73-23.63,20.13-8.74,43.33-13.23,66.47-13.85m-42.55,176.11c-15.12-7.54-34.37-18.64-53.63-33.85-4.06,8.44-4.51,15.8-2.42,21.74,1.48,4.19,4.28,7.83,7.95,10.73,3.98,3.13,8.95,5.41,14.45,6.65,10.42,2.35,22.59.98,33.65-5.27">
    </path>
    <path class="cls-1"
        d="m367.28,126.76c10.61-10.7,19.95-22.55,27.47-33.12l3.82,7.18c12.29,24.58,18.67,49.07,18.67,76.62l-.03,43.72.23,22.67c.89,55.64,12.93,111.94,40.2,163.46l-57.06-46.01-40.38,65.52-42.42-39.93-67.78,110-67.78-110-42.42,39.93-40.38-65.52-57.06,46.01c27.27-51.52,39.31-107.82,40.2-163.46l.23-22.67-.03-43.72c0-27.55,6.38-52.04,18.67-76.62l3.81-7.18c7.51,10.57,16.86,22.42,27.47,33.12l-3.31,6.88c-6.44,13.36-8.57,28.3-3.55,42.51,3.23,9.15,9.13,17,16.73,22.99,7.38,5.82,16.12,9.74,25.27,11.8,5.96,1.34,12.03,1.89,18.06,1.71-1.41,7.98-2.02,16.25-2.06,24.68l-53.83,31.09,41.54,23.28c3.32,1.86,6.48,3.99,9.45,6.38,34.25,30.75,54.83,121.71,68.98,166.14,14.15-44.43,34.74-135.39,68.99-166.14,2.97-2.38,6.13-4.51,9.45-6.38l41.54-23.28-53.83-31.09c-.04-8.43-.65-16.7-2.06-24.68,6.03.19,12.1-.36,18.06-1.71,9.15-2.06,17.89-5.98,25.27-11.8,7.6-5.99,13.5-13.84,16.73-22.99,5.01-14.21,2.88-29.15-3.55-42.51l-3.31-6.88h0Z">
    </path>
</svg>